<svg xmlns="http://www.w3.org/2000/svg" viewBox="0 0 135 135" fill="currentColor" fill-rule="evenodd">
    <path d="M45.63,15.38c-12.39,5.21-22.54,14.64-28.65,26.61-6.12,11.97-7.8,25.72-4.77,38.81,3.04,13.09,10.6,24.69,21.36,32.75,10.76,8.06,24.02,12.05,37.44,11.28,13.42-.77,26.13-6.26,35.9-15.5,9.76-9.24,15.95-21.63,17.46-34.99,1.51-13.36-1.74-26.82-9.19-38.01-1.07-1.61-.64-3.78.97-4.85,1.61-1.07,3.78-.64,4.85.97,8.36,12.56,12.02,27.68,10.32,42.67-1.7,15-8.64,28.91-19.61,39.28-10.96,10.37-25.24,16.54-40.31,17.4-15.07.87-29.96-3.62-42.04-12.66-12.08-9.05-20.58-22.07-23.99-36.77-3.41-14.7-1.51-30.14,5.35-43.58,6.87-13.44,18.26-24.02,32.17-29.87,13.91-5.85,29.44-6.6,43.85-2.11,1.85.57,2.88,2.54,2.3,4.38-.57,1.85-2.54,2.88-4.38,2.3-12.83-4-26.67-3.33-39.06,1.88ZM108.73,20.17c0,2.07-1.68,3.75-3.75,3.75s-3.75-1.68-3.75-3.75,1.68-3.75,3.75-3.75,3.75,1.68,3.75,3.75ZM61.98,60.34c0,1.91,2.39,2.56,7.69,3.88,3.89.97,6.6,2.18,8.15,3.63,1.53,1.45,2.29,3.53,2.29,6.25,0,3.57-1.03,6.26-3.11,8.08-2.07,1.82-5.09,2.73-9.09,2.73h-9.6c-1.97,0-3.57-1.6-3.59-3.57-.01-1.99,1.6-3.61,3.59-3.61h9.41c3.15-.12,4.79-.95,4.91-2.47,0-1.3-1.03-2.21-3.07-2.73-6.91-1.72-11.11-3.44-12.6-5.15-1.48-1.71-2.23-3.77-2.23-6.19,0-6.59,3.2-9.85,9.59-9.8h10.77c1.99,0,3.6,1.61,3.6,3.59s-1.61,3.59-3.6,3.59h-9.69c-1.83,0-3.43.06-3.43,1.77Z"/>
</svg>
